<svg xmlns="http://www.w3.org/2000/svg" style="display:none">
  <symbol id="ts-check-shield" viewBox="0 0 24 24">
    <path d="M12 2 4 5v6c0 5.2 3.4 9.7 8 11 4.6-1.3 8-5.8 8-11V5l-8-3Z" fill="none" stroke="currentColor" stroke-width="2" stroke-linejoin="round"/>
    <path d="m8 12 2.6 2.6L16 9" fill="none" stroke="currentColor" stroke-width="2" stroke-linecap="round" stroke-linejoin="round"/>
  </symbol>
  <symbol id="ts-camera" viewBox="0 0 24 24">
    <path d="M4 7h4l1.6-2h4.8L16 7h4v12H4V7Z" fill="none" stroke="currentColor" stroke-width="2" stroke-linejoin="round"/>
    <circle cx="12" cy="13" r="3.5" fill="none" stroke="currentColor" stroke-width="2"/>
  </symbol>
  <symbol id="ts-document" viewBox="0 0 24 24">
    <path d="M6 2h8l4 4v16H6V2Z" fill="none" stroke="currentColor" stroke-width="2" stroke-linejoin="round"/>
    <path d="M14 2v5h5M9 12h6M9 16h6" fill="none" stroke="currentColor" stroke-width="2" stroke-linecap="round"/>
  </symbol>
  <symbol id="ts-tools" viewBox="0 0 24 24">
    <path d="m14 7 3-3 3 3-3 3-3-3ZM4 20l8-8M9 5l10 10-4 4L5 9V5h4Z" fill="none" stroke="currentColor" stroke-width="2" stroke-linecap="round" stroke-linejoin="round"/>
  </symbol>
  <symbol id="ts-qr" viewBox="0 0 24 24">
    <path d="M4 4h6v6H4zM14 4h6v6h-6zM4 14h6v6H4z" fill="none" stroke="currentColor" stroke-width="2"/>
    <path d="M14 14h2v2h-2zM18 14h2v6h-2zM14 18h2v2h-2z" fill="currentColor"/>
  </symbol>
</svg>
